<svg xmlns="http://www.w3.org/2000/svg" data-name="Layer 1" viewBox="0 0 100 125" x="0px" y="0px"><polygon points="61.5 30.71 61.5 32.25 69.69 32.25 69.69 29.18 61.5 29.18 61.5 30.71"/><polygon points="61.5 50.48 61.5 52.02 69.69 52.02 69.69 48.95 61.5 48.95 61.5 50.48"/><polygon points="61.5 70.25 61.5 71.79 69.69 71.79 69.69 68.72 61.5 68.72 61.5 70.25"/><path d="M86.86,54.78a7.38,7.38,0,0,0-3,14.15L81,77.8a9.48,9.48,0,0,0-4.44-1.1,8.93,8.93,0,0,0-1.47.13V62.15H67.79V58.58H75.1V42.38H67.79V38.81H75.1V22.61H27v16.2H34.3v3.57H27v16.2H34.3v3.57H27V78.36H71.23a9.48,9.48,0,0,0-4.15,7.83,10.1,10.1,0,0,0,.23,2.07H39.19a7.19,7.19,0,0,0-12.84-2.73L16,60.74a6.75,6.75,0,0,0-1.64-12.33l4.6-24.95a9.85,9.85,0,0,0,1.82.17A10.32,10.32,0,0,0,31.05,13.32a10.12,10.12,0,0,0-.47-3.08l18.94,2.38A5.81,5.81,0,0,0,60.71,13l14.44,2.44A8.72,8.72,0,0,0,82,22.67l-1.24,8.86a6,6,0,1,0,3.09.1l1.24-8.9a8.71,8.71,0,1,0-9.87-10.38L60.83,9.92a5.81,5.81,0,0,0-11.22-.39L28.82,6.92A10.31,10.31,0,1,0,16,22.46L11.22,48.28a6.77,6.77,0,0,0,1.3,13.41l.5,0L25,90.14a7.2,7.2,0,0,0,14.23,1.19H68.6a9.48,9.48,0,1,0,15-11.52l3.35-10.26a7.39,7.39,0,0,0-.07-14.77ZM85.07,37.39a2.95,2.95,0,1,1-2.94-3A2.94,2.94,0,0,1,85.07,37.39ZM83.75,8.49a5.65,5.65,0,1,1-5.64,5.64A5.65,5.65,0,0,1,83.75,8.49Zm-28.58,0a2.75,2.75,0,1,1-2.75,2.75A2.75,2.75,0,0,1,55.17,8.49ZM13.49,13.32a7.25,7.25,0,1,1,7.25,7.24A7.26,7.26,0,0,1,13.49,13.32Zm-1,45.3a3.7,3.7,0,1,1,3.7-3.7A3.7,3.7,0,0,1,12.52,58.62ZM32.15,93.93a4.14,4.14,0,1,1,4.14-4.14A4.15,4.15,0,0,1,32.15,93.93ZM30.06,35.74V25.68H72V35.74Zm34.66,3.07v3.57H37.37V38.81ZM30.06,55.51V45.45H72V55.51Zm34.66,3.07v3.57H37.37V58.58ZM30.06,75.28V65.22H72V75.28ZM76.57,92.62A6.43,6.43,0,1,1,83,86.19,6.43,6.43,0,0,1,76.57,92.62ZM86.86,66.48a4.32,4.32,0,1,1,4.32-4.31A4.32,4.32,0,0,1,86.86,66.48Z"/><text x="0" y="115" fill="#87CEEB" font-size="5px" font-weight="bold" font-family="'Helvetica Neue', Helvetica, Arial-Unicode, Arial, Sans-serif"></text><text x="0" y="120" fill="#87CEEB" font-size="5px" font-weight="bold" font-family="'Helvetica Neue', Helvetica, Arial-Unicode, Arial, Sans-serif"></text></svg>