<svg xmlns="http://www.w3.org/2000/svg" xmlns:xlink="http://www.w3.org/1999/xlink" version="1.1" x="0px" y="0px" viewBox="0 0 512 640" style="enable-background:new 0 0 512 512;" xml:space="preserve"><path d="M62.4,242.9c-2.9-1.7-3.8-5.3-2.2-8.2c1.7-2.9,5.3-3.8,8.2-2.2l12.5,7.2c2.9,1.7,3.9,5.3,2.2,8.2c-1.6,2.9-5.3,3.8-8.2,2.2  L62.4,242.9z M82.6,218.3c-1.6-2.9-0.7-6.5,2.2-8.2c2.9-1.6,6.5-0.7,8.2,2.2l7.2,12.5c1.6,2.9,0.7,6.5-2.2,8.2  c-2.9,1.6-6.5,0.7-8.2-2.2L82.6,218.3z M168.5,232.5c2.9-1.6,6.5-0.7,8.2,2.2c1.6,2.9,0.7,6.5-2.2,8.2l-12.5,7.2  c-2.9,1.6-6.5,0.7-8.2-2.2c-1.6-2.9-0.7-6.5,2.2-8.2L168.5,232.5z M143.8,212.3c1.6-2.9,5.3-3.9,8.2-2.2c2.9,1.6,3.9,5.3,2.2,8.2  l-7.2,12.5c-1.6,2.9-5.3,3.9-8.2,2.2c-2.8-1.6-3.8-5.3-2.2-8.2L143.8,212.3z M112.4,207.1c0-3.3,2.7-6,6-6s6,2.7,6,6v14.4  c0,3.3-2.7,6-6,6s-6-2.7-6-6V207.1z M112.2,239.4h12.4c16,0,29,13,29,29v17h2.5c3.3,0,6,2.7,6,6v25.2c0,3.3-2.7,6-6,6H80.7  c-3.3,0-6-2.7-6-6v-25.2c0-3.3,2.7-6,6-6h2.5v-17C83.2,252.4,96.3,239.4,112.2,239.4L112.2,239.4z M124.6,251.4h-12.4  c-9.3,0-17,7.7-17,17v17h46.3v-17C141.6,259,133.9,251.4,124.6,251.4L124.6,251.4z M86.7,310.5h63.4v-13.2H86.7V310.5z M118.4,171.7  c2.1,0,4.2,0.1,6.2,0.2v-118c0-3.3,2.7-6,6-6H481c3.3,0,6,2.7,6,6v404.2c0,3.3-2.7,6-6,6H130.6c-3.3,0-6-2.7-6-6v-99.8  c-54,3.6-99.6-39.2-99.6-93.2C25,213.5,66.8,171.7,118.4,171.7L118.4,171.7z M136.6,173.5c41.2,8.1,72.3,43.2,75,85.6H232l104.3-127  l-6.2,1c-3.3,0.5-6.3-1.7-6.8-5c-0.5-3.3,1.7-6.3,5-6.8l24.5-3.8c4.1-0.7,7.5,2.6,7.1,6.4l-2.1,21.3c-0.3,3.3-3.2,5.7-6.5,5.4  s-5.7-3.2-5.4-6.5l0.5-5.4l-98.9,120.4h86.3l-3.5-2.3c-2.7-1.8-3.5-5.5-1.8-8.3c1.8-2.8,5.5-3.5,8.3-1.8l20.3,13.2  c3.7,2.4,3.7,7.7,0.1,10.1l-20.4,13.3c-2.7,1.8-6.5,1-8.3-1.8c-1.8-2.8-1-6.5,1.8-8.3l3.5-2.3h-86.3l98.9,120.4l-0.5-5.4  c-0.3-3.3,2.1-6.2,5.4-6.5s6.2,2.1,6.5,5.4l2.1,21.3c0.4,3.9-3,7.1-7.1,6.4l-24.5-3.8c-3.3-0.5-5.5-3.6-5-6.8c0.5-3.3,3.6-5.5,6.8-5  l6.2,1L232,271.1h-20.4c-2.7,42.4-33.8,77.5-75,85.6v95.3H475V59.9H136.6V173.5z M176,207.6c-31.8-31.8-83.3-31.8-115.1,0  c-31.8,31.8-31.8,83.3,0,115.1c14.7,14.7,35.1,23.8,57.6,23.8c44.6,0,81.4-36.1,81.4-81.4C199.8,242.6,190.7,222.3,176,207.6  L176,207.6z M391.1,236.1H435c3.3,0,6,2.7,6,6v46c0,3.3-2.7,6-6,6h-43.9c-3.3,0-6-2.7-6-6v-46C385.1,238.8,387.8,236.1,391.1,236.1  L391.1,236.1z M429,248.1h-31.9v34H429V248.1z M391.1,96.8H435c3.3,0,6,2.7,6,6v46c0,3.3-2.7,6-6,6h-43.9c-3.3,0-6-2.7-6-6v-46  C385.1,99.5,387.8,96.8,391.1,96.8L391.1,96.8z M429,108.9h-31.9v34H429V108.9z M391.1,375.4H435c3.3,0,6,2.7,6,6v46  c0,3.3-2.7,6-6,6h-43.9c-3.3,0-6-2.7-6-6v-46C385.1,378.1,387.8,375.4,391.1,375.4L391.1,375.4z M429,387.4h-31.9v34H429V387.4z   M174.6,100.8c-3.3,0-6-2.7-6-6c0-3.3,2.7-6,6-6h77.8c3.3,0,6,2.7,6,6c0,3.3-2.7,6-6,6H174.6z M213.4,349.7c-3.3,0-6-2.7-6-6  c0-3.3,2.7-6,6-6h38.9c3.3,0,6,2.7,6,6c0,3.3-2.7,6-6,6H213.4z M174.6,383.5c-3.3,0-6-2.7-6-6c0-3.3,2.7-6,6-6h77.8c3.3,0,6,2.7,6,6  c0,3.3-2.7,6-6,6H174.6z M174.6,417.3c-3.3,0-6-2.7-6-6c0-3.3,2.7-6,6-6h77.8c3.3,0,6,2.7,6,6c0,3.3-2.7,6-6,6H174.6z M213.4,168.4  c-3.3,0-6-2.7-6-6c0-3.3,2.7-6,6-6h38.9c3.3,0,6,2.7,6,6c0,3.3-2.7,6-6,6H213.4z M174.6,134.6c-3.3,0-6-2.7-6-6c0-3.3,2.7-6,6-6  h77.8c3.3,0,6,2.7,6,6c0,3.3-2.7,6-6,6H174.6z"/><text x="0" y="527" fill="" font-size="5px" font-weight="bold" font-family="'Helvetica Neue', Helvetica, Arial-Unicode, Arial, Sans-serif"></text><text x="0" y="532" fill="#87CEEB" font-size="5px" font-weight="bold" font-family="'Helvetica Neue', Helvetica, Arial-Unicode, Arial, Sans-serif"></text></svg>