<svg xmlns="http://www.w3.org/2000/svg" xmlns:xlink="http://www.w3.org/1999/xlink" version="1.1" x="0px" y="0px" viewBox="0 0 98 122.5" enable-background="new 0 0 98 98" xml:space="preserve"><g><path d="M45.21,69.6108c2.0931,2.0941,5.4845,2.0951,7.5781,0.0005l16.8223-16.8218c2.0889-2.0889,2.0889-5.4888,0-7.5786   L52.7891,28.3886c-2.0956-2.0936-5.485-2.0946-7.5791,0.0005L28.3887,45.2114c-2.0898,2.0894-2.0898,5.4888,0,7.5781L45.21,69.6108   z M29.8027,46.6255L46.624,29.8032c1.3112-1.3102,3.435-1.315,4.751,0L68.1963,46.625c1.3096,1.3101,1.3096,3.4409,0,4.7505   L51.374,68.1972c-1.2676,1.2681-3.4795,1.2695-4.75-0.0005L29.8027,51.3755C28.4932,50.0659,28.4932,47.935,29.8027,46.6255z"/><path d="M41.7607,59.1455h14.4775c1.0566,0,1.916-0.8594,1.916-1.916V46.2046c0-1.0566-0.8594-1.916-1.916-1.916h-0.8584V41.875   c0-3.5181-2.8623-6.3799-6.3799-6.3799s-6.3799,2.8618-6.3799,6.3799v2.4136h-0.8594c-1.0557,0-1.915,0.8594-1.915,1.916v11.0249   C39.8457,58.2861,40.7051,59.1455,41.7607,59.1455z M44.6201,41.875c0-2.415,1.9648-4.3799,4.3799-4.3799   s4.3799,1.9648,4.3799,4.3799v2.4136h-8.7598V41.875z M41.8457,46.2885c5.3126,0,9.0531,0,14.3086,0v10.8569H41.8457V46.2885z"/><path d="M49,47.4663c-1.6162,0-2.9316,1.3149-2.9316,2.9316c0,1.2639,0.8085,2.3336,1.9316,2.7444v1.8254h2v-1.8254   c1.1232-0.4109,1.9316-1.4805,1.9316-2.7444C51.9316,48.7812,50.6162,47.4663,49,47.4663z M49,51.3296   c-0.5137,0-0.9316-0.418-0.9316-0.9316s0.418-0.9316,0.9316-0.9316s0.9316,0.418,0.9316,0.9316S49.5137,51.3296,49,51.3296z"/><path d="M4.4141,52.4145c1.5309,0,2.8148-1.0195,3.2469-2.4102h7.0306l-0.5538,4.3745l-1.4145,0.7143   c-0.7347-0.9442-1.9341-1.4878-3.231-1.2763c-0.9004,0.147-1.6895,0.6353-2.2227,1.3755c-0.5322,0.7407-0.7451,1.644-0.5986,2.5444   c0.3076,1.881,2.0628,3.1235,3.9209,2.8203c1.7444-0.2846,2.9479-1.8539,2.8409-3.5817l2.5546-1.2909l0.7202-5.6802h2.0137   c0.198,1.0483,0.7006,2.0137,1.4712,2.7847L31.7036,64.3l-7.4294,7.7595l-5.3347-4.4082l-4.3331,2.2934   c-1.5887-1.5229-3.9764-1.1461-5.1307,0.4561c-1.1027,1.5319-0.7556,3.6634,0.7773,4.7666   c1.5463,1.1144,3.6796,0.7328,4.7656-0.7769c0.5253-0.7298,0.7781-1.6498,0.5583-2.6967l3.1185-1.65l4.1921,3.464l-3.8459,4.0167   c-1.2818-0.6393-2.9401-0.4549-3.9829,0.5872c-1.3356,1.3346-1.3358,3.4948,0,4.8296c1.3356,1.3335,3.4933,1.3338,4.8291,0   c1.0185-1.0177,1.3399-2.6074,0.584-4.0181l4.8729-5.0894l2.8068,3.6212l-0.4925,1.499c-0.1375-0.0168-0.2754-0.0322-0.4157-0.0322   c-2.1005,0-3.7131,1.8821-3.3721,3.9644c0.4856,2.9848,4.3693,3.9089,6.1416,1.4453c0.5332-0.7407,0.7461-1.644,0.5986-2.5444   c-0.1281-0.7872-0.5305-1.4781-1.1212-1.9983l0.8937-2.7195l-3.641-4.6957l6.3755-6.6588l12.0926,12.0923   c0.7726,0.773,1.7413,1.2754,2.793,1.4721v3.492l-7.0703,0.6731l-1.4443,4.687c-0.1605,0.0035-0.3206,0.0031-0.4844,0.0298   c-1.8622,0.304-3.1236,2.0566-2.8203,3.9199c0.2715,1.6602,1.6875,2.8652,3.3672,2.8652c1.069,0,2.1088-0.495,2.7754-1.4204   c1.128-1.5688,0.7438-3.7659-0.9129-4.8483l1.0369-3.369l5.5527-0.5282v5.5555c-1.3951,0.4294-2.4189,1.7151-2.4189,3.2495   C45.585,95.4682,47.1172,97,49,97s3.4141-1.5317,3.4141-3.4146c0-1.5315-1.0193-2.8151-2.4102-3.247v-7.0299l4.374,0.5538   l0.7158,1.4162c-0.252,0.1973-0.4867,0.4184-0.6786,0.6854c-0.5332,0.7407-0.7451,1.644-0.5986,2.5444   c0.2715,1.6602,1.6875,2.8647,3.3672,2.8647c2.1145,0,3.7116-1.8896,3.374-3.9648c-0.2827-1.7289-1.8221-2.9573-3.5826-2.8412   l-1.2905-2.5553l-5.6807-0.7194v-2.0138c1.0488-0.1978,2.0144-0.7003,2.7852-1.4714L64.5939,66.002l7.5821,7.5818l-4.5246,5.4756   l2.2984,4.3439c-0.8308,0.8632-1.089,1.8936-0.9244,2.8987c0.2724,1.6742,1.7176,2.8652,3.3681,2.8652   c2.1005,0,3.7131-1.8821,3.3721-3.9644c-0.2718-1.6706-1.7143-2.8652-3.3682-2.8652c-0.2396,0-0.4739,0.0358-0.7042,0.0845   l-1.6494-3.1177l3.5522-4.3007l3.9286,3.9286c-0.6834,1.2903-0.4982,2.9238,0.5865,4.0093c1.3344,1.3324,3.4943,1.3348,4.8291,0   c1.3239-1.3228,1.3442-3.4874,0-4.8296c-1.0428-1.0436-2.7068-1.2279-3.9907-0.583l-4.98-4.9799l3.4844-2.7013l1.5093,0.4963   c-0.1447,1.1967,0.3329,2.4338,1.3784,3.1863c1.5518,1.1153,3.6809,0.7299,4.7666-0.7778c1.0986-1.5283,0.75-3.666-0.7773-4.7666   c-1.3896-0.9987-3.3232-0.8403-4.535,0.5261l-2.7267-0.8958l-4.5251,3.5074l-6.5363-6.5361L77.8066,52.789   c0.791-0.7908,1.2799-1.7694,1.4722-2.7935h3.4927l0.6718,7.0713l4.6858,1.4428c0.0033,0.1614,0.0046,0.3228,0.031,0.4849   c0.3076,1.881,2.0628,3.1235,3.9209,2.8203c1.8584-0.3032,3.123-2.0615,2.8203-3.9199c-0.3008-1.8403-2.0264-3.1294-3.9199-2.8203   c-0.9004,0.147-1.6895,0.6353-2.2227,1.3755c-0.0312,0.0434-0.0504,0.0922-0.0793,0.1367l-3.3708-1.0385L84.78,49.9956h5.5553   c0.4292,1.3955,1.7153,2.4194,3.2497,2.4194c1.8828,0,3.415-1.5317,3.415-3.4146c0-1.8833-1.5322-3.415-3.415-3.415   c-1.5308,0-2.8145,1.0193-3.2468,2.4102h-7.0297l0.5538-4.374l1.4059-0.7106c0.627,0.8071,1.5981,1.317,2.6869,1.317   c2.1145,0,3.7106-1.8913,3.373-3.9639c-0.2998-1.8413-2.0244-3.1299-3.9199-2.8213c-1.6805,0.2743-2.9585,1.7544-2.842,3.5817   l-2.5555,1.2914l-0.7185,5.6797H79.278c-0.1934-1.0209-0.6826-1.9962-1.4713-2.7847L66.002,33.4062l7.5816-7.5822l5.476,4.5241   l4.3352-2.2932c0.1157,0.1114,0.2289,0.225,0.363,0.3215c1.5518,1.1153,3.6809,0.7299,4.7666-0.7778   c1.0996-1.5283,0.75-3.6665-0.7773-4.7661c-1.5518-1.1153-3.6809-0.7299-4.7666,0.7778c-0.5827,0.8099-0.7474,1.7886-0.5565,2.6957   l-3.1202,1.6505l-4.2997-3.553l3.9272-3.9275c1.4146,0.7537,2.9976,0.424,4.0102-0.5879c1.3301-1.3311,1.3311-3.4971,0-4.8296   c-1.291-1.2891-3.54-1.2896-4.8291,0.0005c-1.0154,1.0146-1.3366,2.5945-0.5931,4.0008l-4.9699,4.9703l-2.7007-3.4847   l0.4926-1.4995c1.3218,0.1611,2.5033-0.436,3.189-1.3882c1.0986-1.5283,0.75-3.666-0.7773-4.7666   c-0.585-0.4204-1.2744-0.6426-1.9922-0.6426c-1.0977,0-2.1338,0.5308-2.7744,1.4204c-1.0322,1.4351-0.7743,3.3959,0.5237,4.5421   l-0.8939,2.7201l3.5078,4.5245l-6.5361,6.5366L52.7891,20.1933c-0.7729-0.7733-1.7419-1.2758-2.7939-1.4726v-3.4919l7.0713-0.6727   l1.4413-4.6777c0.1611-0.0031,0.3232-0.0129,0.4865-0.0396c1.8671-0.3048,3.1238-2.0602,2.8213-3.9199   c-0.4967-3.0391-4.3942-3.876-6.1426-1.4443c-1.1354,1.5762-0.732,3.7823,0.9118,4.8515l-1.0358,3.3658l-5.5537,0.5278V7.6643   c1.3956-0.4291,2.4199-1.715,2.4199-3.2493C52.415,2.5317,50.8828,1,49,1s-3.415,1.5317-3.415,3.415   c0,1.5308,1.0195,2.8141,2.4102,3.2463v7.0302l-4.374-0.5538l-0.7155-1.4159c1.0614-0.8304,1.4687-2.058,1.278-3.2296   c-0.3008-1.8398-2.0225-3.1338-3.9209-2.8203c-1.8584,0.3032-3.123,2.0615-2.8203,3.9199   c0.2715,1.6602,1.6875,2.8652,3.3682,2.8652c0.0714,0,0.1447-0.0131,0.2169-0.0176l1.289,2.5489l5.6787,0.7194v2.0141   c-1.0484,0.1981-2.0137,0.7007-2.7842,1.4716L33.5307,31.8731l-7.6575-7.5171l4.4755-5.4152l-2.2988-4.3447   c0.1114-0.1157,0.2311-0.2225,0.3262-0.3546c1.0996-1.5283,0.75-3.6665-0.7773-4.7656c-1.5422-1.1097-3.6731-0.7415-4.7656,0.7764   c-1.1044,1.5343-0.753,3.6663,0.7773,4.7666c0.584,0.4209,1.2734,0.6431,1.9922,0.6431c0.2394,0,0.4737-0.0358,0.7039-0.0846   l1.6497,3.1183L24.4409,22.95l-3.9611-3.8885c0.2571-0.4857,0.408-1.0227,0.408-1.5879c0-3.0926-3.7658-4.4763-5.8291-2.4146   c-1.3311,1.3315-1.3311,3.4971,0,4.8286c1.0121,1.0114,2.5933,1.3424,4.0089,0.5889l5.0209,4.9288l-3.5424,2.7465l-1.5078-0.4955   c0.2623-2.1564-1.4231-3.8297-3.373-3.8297c-2.0825,0-3.7158,1.8655-3.3721,3.9644c0.1465,0.9004,0.6357,1.6899,1.376,2.2222   c0.584,0.4209,1.2734,0.6431,1.9922,0.6431c0.9821,0,1.8986-0.4422,2.5422-1.1685l2.7273,0.8965l4.5975-3.5655l6.5888,6.468   L20.1924,45.2109c-0.7727,0.7731-1.2752,1.7419-1.472,2.7935h-3.4919l-0.6718-7.0713l-4.6866-1.4428   c-0.045-2.1639-1.9536-3.634-3.9511-3.3052c-1.8574,0.3032-3.123,2.061-2.8213,3.9199c0.3076,1.881,2.0628,3.1235,3.9209,2.8203   c0.9028-0.1474,1.7244-0.6293,2.3009-1.5123l3.3719,1.0386l0.5286,5.5527H7.6638c-0.4293-1.3956-1.7155-2.4194-3.2497-2.4194   C2.5313,45.5849,1,47.1167,1,49C1,50.8828,2.5313,52.4145,4.4141,52.4145z M10.2695,58.5835   c-0.7793,0.1274-1.499-0.4058-1.624-1.1689c-0.126-0.7632,0.3909-1.4967,1.1689-1.624c0.7907-0.1251,1.4984,0.4054,1.623,1.1689   C11.5635,57.729,11.0391,58.4575,10.2695,58.5835z M13.3955,73.2221c-0.4385,0.6084-1.3604,0.7642-1.9746,0.3223   c-0.6398-0.4615-0.7757-1.3446-0.3223-1.9746c0.7362-1.0232,2.3447-0.6355,2.5449,0.5981   C13.7041,72.541,13.6162,72.915,13.3955,73.2221z M18.4736,81.5263c-0.5342,0.5342-1.4648,0.5361-2.001,0   c-0.5549-0.5538-0.5527-1.4483,0-2c0.5479-0.5479,1.4427-0.5577,2.001-0.0005C19.0256,80.0778,19.0267,80.9743,18.4736,81.5263z    M28.3896,83.163c-0.7055,0.9783-2.3391,0.6692-2.5449-0.5986c-0.1399-0.8622,0.5254-1.6426,1.3984-1.6426   c0.6868,0,1.2826,0.498,1.3945,1.187C28.6982,82.4819,28.6104,82.8559,28.3896,83.163z M40.7031,92.3574   c-0.2207,0.3066-0.5479,0.5093-0.9209,0.5703c-0.7832,0.1294-1.498-0.4058-1.623-1.1689c-0.1274-0.7727,0.3974-1.4979,1.168-1.624   C40.602,89.933,41.4227,91.3621,40.7031,92.3574z M56.959,86.562c0.7666-0.1262,1.4963,0.3863,1.624,1.1685   c0.1271,0.7708-0.3968,1.4977-1.1689,1.624c-0.7793,0.127-1.499-0.4048-1.623-1.1685   C55.6639,87.4154,56.1853,86.6886,56.959,86.562z M72.3975,84.3379c0.6868,0,1.2826,0.498,1.3945,1.187   c0.2976,1.8334-2.4966,2.2814-2.793,0.4556C70.8588,85.1167,71.5255,84.3379,72.3975,84.3379z M79.5254,79.5268   c0.5516-0.5516,1.4462-0.5548,2.001,0c0.5525,0.5515,0.5526,1.4479,0,2.0005c-0.5352,0.5342-1.4658,0.5342-2.001,0   C78.9746,80.9755,78.9746,80.0781,79.5254,79.5268z M81.1875,69.9326c0.4528-0.6293,1.3376-0.782,1.9756-0.3228   c0.6328,0.4561,0.7773,1.3418,0.3223,1.9746c-0.4385,0.6094-1.3613,0.7651-1.9756,0.3228   C80.877,71.4516,80.7324,70.5654,81.1875,69.9326z M91.3037,57.0483c0.7909-0.1251,1.4984,0.4053,1.623,1.1689   c0.126,0.7695-0.3984,1.498-1.168,1.624c-0.7783,0.1309-1.499-0.4053-1.624-1.1689   C90.0087,57.9091,90.5256,57.1756,91.3037,57.0483z M93.585,47.5854c0.7803,0,1.415,0.6348,1.415,1.415   c0,0.7798-0.6348,1.4146-1.415,1.4146s-1.415-0.6348-1.415-1.4146C92.1699,48.2202,92.8047,47.5854,93.585,47.5854z    M87.7305,39.4165c0.7901-0.125,1.4993,0.4035,1.623,1.1689c0.1268,0.7689-0.3927,1.4972-1.168,1.624   c-0.7813,0.1274-1.5-0.4053-1.623-1.1689C86.4351,40.2678,86.9599,39.5425,87.7305,39.4165z M84.6035,24.7788   c0.4528-0.6293,1.3376-0.782,1.9756-0.3228c0.6328,0.4556,0.7773,1.3413,0.3223,1.9741c-0.4385,0.6099-1.3613,0.7646-1.9756,0.3228   C84.293,26.2973,84.1484,25.4116,84.6035,24.7788z M79.5264,16.4731c0.5554-0.5544,1.449-0.5505,2.001-0.0005   c0.5508,0.5522,0.5508,1.4502,0,2.001c-0.5352,0.5352-1.4658,0.5352-2.001,0C78.9738,17.9221,78.9738,17.0257,79.5264,16.4731z    M69.6094,14.8374c0.4528-0.6293,1.3376-0.782,1.9756-0.3228c0.6328,0.4561,0.7773,1.3418,0.3223,1.9746   c-0.4385,0.6094-1.3613,0.7651-1.9756,0.3228C69.2988,16.3564,69.1543,15.4702,69.6094,14.8374z M57.2959,5.6425   c0.2764-0.384,0.7074-0.5889,1.1514-0.5889c0.6953,0,1.2813,0.4995,1.3936,1.1875c0.1272,0.7701-0.397,1.4977-1.1689,1.624   C57.4301,8.0732,56.5661,6.6565,57.2959,5.6425z M41.04,11.4384c-0.792,0.127-1.499-0.4067-1.623-1.1689   c-0.126-0.7695,0.3984-1.498,1.168-1.624c0.7668-0.1262,1.4963,0.3868,1.624,1.1689C42.335,10.5776,41.8181,11.3111,41.04,11.4384z    M26.7529,13.0732c-0.4385,0.6104-1.3613,0.7651-1.9746,0.3223c-0.6391-0.46-0.7763-1.3428-0.3223-1.9746   c0.4503-0.625,1.3296-0.7842,1.9746-0.3218C27.0635,11.5547,27.208,12.4404,26.7529,13.0732z M18.4736,18.4741   c-0.5352,0.5342-1.4658,0.5337-2.001-0.0005c-0.5508-0.5513-0.5508-1.4492,0-2.0005c0.8847-0.8831,2.415-0.2647,2.415,1.0005   C18.8877,17.851,18.7412,18.206,18.4736,18.4741z M16.8115,28.0678c-0.4385,0.6084-1.3604,0.7642-1.9746,0.3218   c-0.3066-0.2207-0.5098-0.5474-0.5703-0.9204c-0.1402-0.8638,0.5265-1.6426,1.3984-1.6426   C16.8127,25.8266,17.4837,27.1324,16.8115,28.0678z M50.4141,93.5854C50.4141,94.3652,49.7793,95,49,95   c-0.7803,0-1.415-0.6348-1.415-1.4146c0-0.7803,0.6348-1.415,1.415-1.415C49.7793,92.1704,50.4141,92.8051,50.4141,93.5854z    M47.585,4.415C47.585,3.6347,48.2197,3,49,3s1.415,0.6348,1.415,1.415c0,0.7798-0.6348,1.4146-1.415,1.4146   S47.585,5.1948,47.585,4.415z M21.6064,46.625L46.625,21.6074c1.3084-1.3074,3.4312-1.3178,4.75,0L76.3926,46.625   c1.3096,1.3096,1.3096,3.4404,0,4.75L51.375,76.393c-1.2695,1.2686-3.4805,1.2686-4.75,0L21.6064,51.375   C20.2969,50.0654,20.2969,47.9345,21.6064,46.625z M6.6963,40.9516c-0.7822,0.1289-1.499-0.4058-1.624-1.1685   c-0.125-0.77,0.3994-1.4985,1.1689-1.6245c0.7909-0.1251,1.4984,0.4053,1.623,1.1689C7.9911,40.0965,7.4715,40.8248,6.6963,40.9516   z M4.4141,47.5849c0.7803,0,1.415,0.6348,1.415,1.415c0,0.7798-0.6348,1.4146-1.415,1.4146C3.6348,50.4145,3,49.7798,3,49   C3,48.2197,3.6348,47.5849,4.4141,47.5849z"/></g><text x="0" y="113" fill="#87CEEB" font-size="5px" font-weight="bold" font-family="'Helvetica Neue', Helvetica, Arial-Unicode, Arial, Sans-serif"></text><text x="0" y="118" fill="#87CEEB" font-size="5px" font-weight="bold" font-family="'Helvetica Neue', Helvetica, Arial-Unicode, Arial, Sans-serif"></text></svg>