<svg xmlns="http://www.w3.org/2000/svg" xmlns:xlink="http://www.w3.org/1999/xlink" version="1.1" x="0px" y="0px" viewBox="0 0 32 40" enable-background="new 0 0 32 32" xml:space="preserve"><g><path d="M29,25h-1V15c0-1.7-1.3-3-3-3h-1V9.4l3.3-3.3C27.7,5.7,28,5.1,28,4.4c0-0.6-0.3-1.3-0.7-1.7c-0.9-0.9-2.5-0.9-3.4,0L22.6,4   H13c-0.3,0-0.5,0.1-0.7,0.3l-4,4C8.1,8.5,8,8.7,8,9v3H7c-1.7,0-3,1.3-3,3v10H3c-0.6,0-1,0.4-1,1c0,2.2,1.8,4,4,4h20   c2.2,0,4-1.8,4-4C30,25.4,29.6,25,29,25z M25.6,4c0.1,0,0.2,0,0.3,0.1C26,4.2,26,4.4,26,4.4c0,0.1,0,0.2-0.1,0.3l-3.6,3.6   c0,0,0,0,0,0l-1.9,1.9C20.2,10,20,9.8,19.8,9.6l3.9-3.9c0,0,0,0,0,0l1.6-1.6C25.4,4,25.5,4,25.6,4z M18.5,11.2   c0.1,0.1,0.3,0.2,0.4,0.4c-0.2,0.1-0.4,0.2-0.7,0.3C18.3,11.6,18.4,11.4,18.5,11.2z M20.6,6l-2.9,2.9C16.6,10,16,11.5,16,13   c0,0.6,0.4,1,1,1c1.6,0,3-0.6,4.1-1.7l0.9-0.9V22H10V11h4c0.6,0,1-0.4,1-1V6H20.6z M13,6.4V9h-2.6L13,6.4z M6,15c0-0.6,0.4-1,1-1h1   v9c0,0.6,0.4,1,1,1h14c0.6,0,1-0.4,1-1v-9h1c0.6,0,1,0.4,1,1v10H6V15z M26,28H6c-0.7,0-1.4-0.4-1.7-1h23.5C27.4,27.6,26.7,28,26,28   z"/><path d="M14.7,15.3c-0.4-0.4-1-0.4-1.4,0l-2,2c-0.4,0.4-0.4,1,0,1.4l2,2c0.2,0.2,0.5,0.3,0.7,0.3s0.5-0.1,0.7-0.3   c0.4-0.4,0.4-1,0-1.4L13.4,18l1.3-1.3C15.1,16.3,15.1,15.7,14.7,15.3z"/><path d="M17.3,20.7c0.2,0.2,0.5,0.3,0.7,0.3s0.5-0.1,0.7-0.3l2-2c0.4-0.4,0.4-1,0-1.4l-2-2c-0.4-0.4-1-0.4-1.4,0s-0.4,1,0,1.4   l1.3,1.3l-1.3,1.3C16.9,19.7,16.9,20.3,17.3,20.7z"/></g><text x="0" y="47" fill="#87CEEB" font-size="5px" font-weight="bold" font-family="'Helvetica Neue', Helvetica, Arial-Unicode, Arial, Sans-serif"></text><text x="0" y="52" fill="#87CEEB" font-size="5px" font-weight="bold" font-family="'Helvetica Neue', Helvetica, Arial-Unicode, Arial, Sans-serif"></text></svg>